# xmcd CD database file
#
# Track frame offsets:
#	150
#	17295
#	39105
#	67575
#	88090
#	107223
#	125410
#	145623
#	171325
#	191120
#
# Disc length: 2849 seconds
#
# Revision: 0
# Processed by: cddbd v1.5.1PL2 Copyright (c) Steve Scherf et al.
# Submitted via: CDex 1.51
#
DISCID=780b1f0a
DTITLE=許景淳 - ?來自何方
DYEAR=1900
DGENRE=Other
TTITLE0=我們可以靠的很近
TTITLE1=?來自何方
TTITLE2=流離人生
TTITLE3=何必在乎愛多久
TTITLE4=星星
TTITLE5=鴻爪
TTITLE6=婚禮的祝福
TTITLE7=愛的國度裡
TTITLE8=分手
TTITLE9=等待
EXTD=
EXTT0=
EXTT1=
EXTT2=
EXTT3=
EXTT4=
EXTT5=
EXTT6=
EXTT7=
EXTT8=
EXTT9=
PLAYORDER=
